<mxfile host="app.diagrams.net" modified="2024-07-14T21:11:57.321Z" agent="Mozilla/5.0 (Windows NT 10.0; Win64; x64) AppleWebKit/537.36 (KHTML, like Gecko) Chrome/126.0.0.0 Safari/537.36 Edg/126.0.0.0" version="24.6.5" etag="hmQLIlzcqAIcy49Hif8C" type="github">
  <diagram name="Trang-1" id="THIX3k6S1r3QgsSHuFTV">
    <mxGraphModel>
      <root>
        <mxCell id="0" />
        <mxCell id="1" parent="0" />
      </root>
    </mxGraphModel>
  </diagram>
</mxfile>
